<?xml version="1.0" standalone="no"?>
<!DOCTYPE svg PUBLIC "-//W3C//DTD SVG 20010904//EN"
 "http://www.w3.org/TR/2001/REC-SVG-20010904/DTD/svg10.dtd">
<svg version="1.0" xmlns="http://www.w3.org/2000/svg"
 width="3000.000000pt" height="1775.000000pt" viewBox="0 0 3000.000000 1775.000000"
 preserveAspectRatio="xMidYMid meet">

<g transform="translate(0.000000,1775.000000) scale(0.100000,-0.100000)"
fill="#000000" stroke="none">
<path d="M3241 17288 c44 -57 574 -727 1176 -1489 l1095 -1387 312 -6 c171 -3
1837 -12 3701 -21 3774 -17 3920 -18 4125 -40 812 -86 1307 -349 1517 -803
123 -265 128 -648 13 -987 -39 -116 -81 -179 -194 -290 -277 -274 -716 -436
-1366 -502 -218 -22 -784 -22 -1015 0 -88 8 -161 14 -161 14 -1 -1 12 -688 28
-1527 l30 -1525 97 -120 c53 -67 971 -1208 2039 -2538 l1944 -2417 2414 0
c1328 0 2414 2 2414 5 0 2 -1206 1333 -2680 2957 -1474 1624 -2676 2955 -2672
2959 4 3 52 18 107 34 1395 387 2382 1362 2755 2723 116 422 165 821 141 1137
-73 926 -393 1667 -990 2288 -815 847 -2068 1390 -3718 1609 l-168 23 -5513 2
-5513 3 82 -102z"/>
<path d="M18817 17379 c-1053 -15 -2530 -61 -2510 -79 4 -4 69 -31 143 -60
1601 -625 2610 -1710 2910 -3130 137 -646 122 -1174 -51 -1830 -275 -1040
-879 -1893 -1746 -2464 l-130 -86 -7 -550 -7 -550 1333 -1468 1333 -1469 3
1782 2 1781 73 -8 c169 -18 600 -48 827 -58 1398 -58 2627 151 3546 604 223
109 304 156 509 292 526 348 928 787 1179 1284 88 173 130 283 190 496 106
374 168 696 213 1094 24 220 24 727 -1 935 -59 501 -175 898 -382 1307 -342
674 -940 1258 -1645 1607 -86 42 -176 94 -200 115 -398 342 -2352 501 -5582
455z m3183 -2509 c743 -8 736 -8 962 -86 232 -81 428 -204 603 -379 135 -135
225 -260 309 -430 76 -152 99 -219 127 -358 59 -303 48 -548 -38 -812 -182
-561 -615 -953 -1200 -1087 l-98 -22 -1287 -3 -1288 -4 0 1590 0 1590 118 4
c234 6 1142 5 1792 -3z"/>
<path d="M6954 7778 c-2029 -2202 -3715 -4031 -3748 -4065 l-59 -63 2474 0
2474 1 2062 2487 2062 2487 1 1578 0 1577 -789 0 -789 0 -3688 -4002z"/>
<path d="M11270 5260 l0 -510 510 0 510 0 0 510 0 510 -510 0 -510 0 0 -510z"/>
<path d="M12450 5260 l0 -510 510 0 510 0 0 510 0 510 -510 0 -510 0 0 -510z"/>
<path d="M11270 4080 l0 -510 510 0 510 0 0 510 0 510 -510 0 -510 0 0 -510z"/>
<path d="M12450 4080 l0 -510 510 0 510 0 0 510 0 510 -510 0 -510 0 0 -510z"/>
<path d="M26373 3105 c-110 -30 -201 -97 -246 -180 -32 -58 -32 -212 0 -270
54 -101 157 -152 376 -186 147 -22 185 -35 215 -74 41 -52 19 -110 -54 -146
-38 -18 -64 -22 -133 -22 -101 0 -180 20 -270 69 -35 20 -67 32 -71 27 -4 -4
-33 -44 -64 -88 l-57 -80 28 -22 c96 -77 259 -125 428 -127 173 -1 286 37 372
126 62 64 83 117 83 214 0 70 -4 89 -28 135 -18 34 -46 68 -77 91 -78 59 -127
74 -383 118 -77 14 -121 38 -140 77 -14 30 -14 36 0 66 24 49 75 71 180 75 96
4 174 -13 245 -54 23 -13 44 -24 47 -24 6 0 104 143 112 164 8 20 -116 82
-214 107 -91 23 -270 25 -349 4z"/>
<path d="M16480 2565 l0 -535 125 0 125 0 0 175 0 175 73 0 72 0 134 -175 134
-175 149 0 150 0 -34 42 c-18 23 -84 105 -145 181 -62 77 -113 142 -113 146 0
3 20 14 45 25 58 23 131 94 156 152 80 180 13 396 -149 478 -80 40 -136 46
-437 46 l-285 0 0 -535z m577 302 c100 -53 108 -201 14 -259 -32 -21 -51 -23
-188 -27 l-153 -3 0 157 0 157 148 -4 c111 -3 155 -8 179 -21z"/>
<path d="M17590 2565 l0 -535 415 0 415 0 0 105 0 105 -295 0 -295 0 0 115 0
115 270 0 270 0 0 100 0 100 -270 0 -270 0 0 110 0 110 290 0 290 0 0 105 0
105 -410 0 -410 0 0 -535z"/>
<path d="M18946 3063 c-10 -21 -115 -254 -233 -518 -118 -264 -219 -488 -225
-498 -8 -16 -1 -17 128 -15 l136 3 37 90 38 90 265 3 265 2 39 -95 39 -95 133
0 c72 0 132 4 132 8 0 4 -105 244 -234 532 l-234 525 -134 3 -134 3 -18 -38z
m240 -425 c41 -99 74 -185 74 -189 0 -5 -76 -9 -169 -9 l-170 0 53 128 c124
297 118 285 128 268 5 -10 43 -99 84 -198z"/>
<path d="M19810 2565 l0 -535 400 0 400 0 0 110 0 110 -270 0 -270 0 0 425 0
425 -130 0 -130 0 0 -535z"/>
<path d="M20520 2990 l0 -110 165 0 165 0 0 -425 0 -425 125 0 125 0 0 425 0
425 165 0 165 0 0 110 0 110 -455 0 -455 0 0 -110z"/>
<path d="M21484 3033 c23 -38 118 -184 209 -326 l167 -258 0 -209 0 -210 125
0 125 0 0 205 0 205 220 330 220 331 -151 -3 -152 -3 -126 -202 c-69 -112
-128 -203 -131 -203 -3 0 -61 92 -130 205 l-124 205 -148 0 -148 0 44 -67z"/>
<path d="M22970 2566 l0 -536 130 0 130 0 0 149 0 149 188 4 c163 4 194 7 243
27 76 29 130 70 169 125 51 74 63 120 63 231 0 111 -12 157 -63 231 -38 55
-93 96 -169 126 -53 21 -72 23 -373 26 l-318 3 0 -535z m597 292 c54 -30 78
-74 78 -145 0 -66 -15 -97 -69 -137 -25 -19 -44 -21 -192 -24 l-164 -3 0 166
0 167 158 -4 c125 -3 163 -7 189 -20z"/>
<path d="M24040 2565 l0 -535 400 0 400 0 0 110 0 110 -270 0 -270 0 0 425 0
425 -130 0 -130 0 0 -535z"/>
<path d="M24942 2738 c4 -333 6 -368 25 -425 68 -205 218 -306 458 -307 114 0
186 15 265 55 112 56 197 181 219 319 6 36 11 212 11 393 l0 327 -124 0 -124
0 -4 -347 c-4 -379 -4 -381 -64 -452 -40 -47 -96 -71 -172 -71 -105 0 -166 36
-208 125 -24 50 -24 53 -24 398 l0 347 -131 0 -131 0 4 -362z"/>
<path d="M5680 840 l0 -430 4430 0 4430 0 0 430 0 430 -4430 0 -4430 0 0 -430z"/>
</g>
</svg>
