<svg xmlns="http://www.w3.org/2000/svg" viewBox="0 0 500 300">
  <!-- Red R -->
  <path fill="#E31837" d="M260 50c-20 0-40 10-50 25v-25h-60l-70 80v70h60v-50l20-25v75h50v-25c10 15 30 25 50 25 40 0 70-30 70-75s-30-75-70-75zm0 100c-15 0-25-10-25-25s10-25 25-25 25 10 25 25-10 25-25 25z"/>
  <!-- White P -->
  <path fill="#FFFFFF" d="M330 50v150h50V125h20c15 0 25 5 25 20v55h50v-55c0-15-5-25-15-35-15-10-30-10-45-10h-85z"/>
  <!-- White House -->
  <path fill="#FFFFFF" d="M150 155l-70-80-80 90v35h30v-25h20v25h30v-25h20v25h30v-25h20v-20z"/>
  <!-- Window -->
  <rect x="110" y="125" width="20" height="20" fill="#FFFFFF"/>
  <!-- Red Line -->
  <rect x="70" y="200" width="150" height="10" fill="#E31837"/>
  <!-- REALTY PLUS Text -->
  <text x="350" y="200" font-family="Arial" font-size="24" font-weight="bold" fill="#E31837">REALTY PLUS</text>
</svg>